<?xml version="1.0" standalone="no"?>
<!DOCTYPE svg PUBLIC "-//W3C//DTD SVG 20010904//EN"
 "http://www.w3.org/TR/2001/REC-SVG-20010904/DTD/svg10.dtd">
<svg version="1.0" xmlns="http://www.w3.org/2000/svg"
 width="1280.000000pt" height="763.000000pt" viewBox="0 0 1280.000000 763.000000"
 preserveAspectRatio="xMidYMid meet">
<metadata>
Created by potrace 1.15, written by Peter Selinger 2001-2017
</metadata>
<g transform="translate(0.000000,763.000000) scale(0.100000,-0.100000)"
fill="#000000" stroke="none">
<path d="M5955 5620 c-4 -6 -171 -10 -468 -10 -390 -1 -465 -3 -481 -15 -16
-12 -61 -15 -232 -15 -131 0 -215 -4 -219 -10 -4 -6 -90 -10 -225 -10 -135 0
-221 -4 -225 -10 -3 -5 -37 -10 -75 -10 -38 0 -72 -4 -75 -10 -3 -5 -39 -10
-79 -10 -53 0 -77 -4 -86 -15 -9 -11 -32 -15 -81 -15 -37 0 -71 -4 -74 -10 -3
-5 -28 -10 -55 -10 -27 0 -52 -4 -55 -10 -3 -5 -28 -10 -55 -10 -27 0 -52 -4
-55 -10 -3 -5 -27 -10 -53 -10 -26 0 -56 -7 -66 -15 -11 -8 -37 -15 -58 -15
-21 0 -47 -4 -58 -10 -11 -5 -29 -14 -40 -20 -11 -5 -29 -10 -39 -10 -11 0
-23 -4 -26 -10 -3 -5 -17 -10 -30 -10 -13 0 -38 -8 -57 -17 -61 -30 -68 -33
-85 -33 -15 0 -107 -42 -173 -79 -8 -5 -42 -22 -75 -38 -34 -16 -76 -38 -95
-48 -59 -31 -69 -35 -83 -35 -7 0 -115 -52 -241 -115 -126 -63 -237 -115 -246
-115 -10 0 -24 -7 -31 -16 -7 -9 -22 -20 -34 -25 -11 -5 -38 -23 -60 -39 -22
-16 -47 -29 -56 -30 -9 0 -24 -9 -34 -20 -10 -11 -23 -20 -30 -20 -7 0 -20 -9
-31 -21 -10 -11 -37 -29 -61 -40 -23 -10 -44 -23 -47 -28 -4 -5 -27 -19 -54
-32 -26 -12 -64 -36 -84 -53 -64 -54 -96 -76 -108 -76 -6 0 -22 -11 -36 -25
-14 -14 -31 -25 -38 -25 -7 0 -21 -9 -31 -20 -10 -11 -22 -20 -27 -20 -9 0
-24 -10 -97 -67 -16 -13 -36 -23 -45 -23 -9 0 -16 -8 -16 -18 0 -9 -36 -53
-80 -97 -44 -44 -80 -84 -80 -90 0 -6 -36 -46 -80 -90 -45 -44 -79 -87 -77
-95 2 -8 -12 -43 -30 -78 -18 -35 -33 -70 -33 -77 0 -8 -20 -53 -45 -101 -31
-60 -42 -91 -35 -98 5 -5 10 -47 10 -92 0 -46 5 -86 10 -89 6 -3 10 -44 10
-91 0 -75 2 -84 18 -84 10 0 29 -11 42 -25 13 -14 29 -25 35 -25 7 0 20 -9 30
-20 10 -11 23 -20 30 -20 6 0 22 -11 35 -25 13 -14 31 -25 40 -25 9 0 25 -9
35 -20 10 -11 23 -20 30 -20 6 0 22 -11 35 -25 13 -14 29 -25 35 -25 6 0 22
-12 36 -26 13 -14 57 -41 96 -60 40 -20 75 -40 79 -45 3 -6 16 -15 27 -20 12
-5 36 -18 52 -28 17 -11 37 -20 46 -20 9 -1 23 -9 32 -19 9 -10 37 -28 61 -40
24 -12 49 -29 56 -37 7 -8 23 -15 36 -15 14 0 41 -10 62 -23 20 -12 60 -33 87
-46 28 -13 66 -32 85 -41 19 -10 60 -30 90 -45 30 -15 63 -31 72 -36 10 -5 26
-9 37 -9 10 0 24 -7 31 -15 7 -8 23 -15 36 -15 13 0 39 -9 59 -20 20 -11 42
-20 50 -20 8 0 35 -11 61 -25 26 -14 53 -25 60 -25 7 0 29 -9 49 -20 20 -11
51 -20 70 -20 18 0 37 -4 40 -10 3 -5 16 -10 29 -10 12 0 31 -7 42 -15 10 -8
29 -15 41 -15 12 0 25 -4 28 -10 3 -5 19 -10 35 -10 16 0 32 -4 35 -10 3 -5
17 -10 30 -10 13 0 27 -4 30 -10 3 -5 16 -10 29 -10 12 0 31 -7 42 -15 10 -8
40 -15 66 -15 26 0 50 -4 53 -10 3 -5 28 -10 55 -10 27 0 52 -4 55 -10 3 -5
28 -10 55 -10 27 0 52 -5 55 -10 3 -6 25 -10 49 -10 23 0 51 -7 62 -15 13 -10
44 -14 96 -15 42 0 80 -4 83 -10 3 -5 39 -10 80 -10 41 0 77 -5 80 -10 3 -6
37 -10 75 -10 38 0 72 -5 75 -10 3 -5 44 -10 89 -10 62 0 87 -4 96 -15 9 -11
34 -15 96 -15 45 0 86 -5 89 -10 4 -6 150 -10 405 -10 255 0 401 -4 405 -10 4
-6 198 -10 550 -10 352 0 546 4 550 10 4 6 72 10 170 10 98 0 166 4 170 10 3
6 25 10 49 10 23 0 51 7 62 15 10 8 40 15 66 15 26 0 50 5 53 10 3 5 28 10 55
10 27 0 52 5 55 10 3 6 21 10 40 10 19 0 37 5 40 10 3 6 19 10 34 10 16 0 34
7 41 15 7 9 29 15 51 15 21 0 41 5 44 10 3 6 17 10 30 10 13 0 27 5 30 10 8
14 532 14 540 0 4 -7 375 -10 1080 -10 705 0 1076 -3 1080 -10 4 -7 290 -10
826 -10 l819 0 0 30 0 30 -514 0 c-444 0 -515 2 -526 15 -11 13 -112 15 -801
15 -514 0 -790 3 -794 10 -4 7 -273 10 -775 10 -423 0 -771 4 -774 8 -7 12 34
93 50 99 8 3 14 13 14 23 0 10 7 21 16 24 9 3 379 6 823 6 694 0 810 -2 827
-15 29 -22 1099 -22 1128 0 17 13 137 15 863 15 l843 0 0 30 0 30 -233 0
c-149 0 -237 -4 -243 -10 -6 -6 -41 -10 -80 -8 -68 3 -69 3 -74 33 l-5 30
-124 3 c-76 2 -128 -1 -135 -8 -14 -14 -938 -14 -952 0 -7 7 -130 9 -350 8
-331 -3 -339 -3 -339 -23 0 -19 8 -20 143 -23 134 -2 142 -4 142 -22 0 -19 -8
-20 -270 -20 -173 0 -270 4 -270 10 0 7 -145 10 -415 10 -270 0 -415 3 -415
10 0 6 -137 10 -390 10 -345 0 -391 2 -397 16 -3 8 -1 20 6 27 6 6 11 27 11
47 0 57 22 70 118 70 44 0 84 -5 87 -10 3 -6 52 -10 110 -10 58 0 107 -4 110
-10 3 -6 48 -10 99 -10 71 0 97 -4 106 -15 10 -12 48 -15 221 -15 128 0 210
-4 214 -10 3 -6 48 -10 100 -10 52 0 97 -4 100 -10 4 -6 87 -10 216 -10 202 0
209 1 209 20 0 19 -7 20 -92 20 -66 1 -99 5 -112 15 -14 11 -46 15 -107 15
-48 0 -91 5 -94 10 -3 6 -48 10 -100 10 -52 0 -97 4 -100 10 -3 6 -48 10 -100
10 -52 0 -97 4 -100 10 -3 6 -44 10 -89 10 -62 0 -87 4 -96 15 -9 11 -35 15
-104 15 -51 0 -96 4 -102 10 -5 5 -95 11 -204 12 l-195 3 -3 79 c-2 60 1 82
13 96 9 10 14 31 13 50 -1 20 3 35 10 38 7 2 12 21 12 42 0 21 5 42 10 45 6 3
10 28 10 55 0 27 5 52 10 55 6 3 10 23 10 44 0 22 6 44 15 51 9 7 15 29 15 51
l0 39 1144 0 c753 0 1147 -3 1151 -10 4 -6 168 -10 460 -10 292 0 456 -4 460
-10 4 -6 178 -10 489 -10 420 0 485 -2 496 -15 11 -13 58 -15 344 -13 l331 3
0 30 0 30 -295 3 c-176 1 -298 6 -304 12 -6 6 -179 10 -461 10 -380 1 -453 3
-469 15 -17 13 -89 15 -467 15 -288 0 -450 4 -454 10 -4 7 -413 10 -1196 10
l-1189 0 1 48 c0 26 8 61 18 77 l18 30 733 3 c643 2 736 0 757 -13 19 -13 62
-15 270 -13 240 3 248 4 248 23 0 19 -8 20 -130 23 -71 1 -134 7 -139 12 -6 6
-199 10 -506 10 -313 0 -500 4 -506 10 -6 6 -151 11 -374 12 l-365 3 -3 95
c-2 52 -7 99 -12 104 -6 6 -10 52 -10 102 0 51 -4 96 -10 99 -5 3 -10 44 -10
90 0 46 -4 87 -10 90 -5 3 -10 44 -10 89 0 62 -4 87 -15 96 -9 7 -15 29 -15
51 0 22 -4 39 -10 39 -5 0 -10 18 -10 39 0 22 -4 43 -10 46 -5 3 -10 28 -10
54 0 26 -5 52 -12 59 -7 7 -11 27 -10 46 2 20 -4 38 -13 46 -9 7 -15 29 -15
51 0 21 -4 41 -10 44 -5 3 -10 24 -10 46 0 21 -4 39 -10 39 -6 0 -10 35 -10
84 0 47 -4 88 -10 91 -5 3 -10 10 -10 16 0 12 147 12 155 -1 4 -6 75 -10 180
-10 105 0 176 -4 180 -10 3 -5 39 -10 79 -10 46 0 85 -6 102 -15 23 -12 69
-15 206 -15 107 0 179 -4 183 -10 3 -5 41 -10 84 -10 42 0 82 -5 87 -10 7 -7
46 -10 95 -8 l84 3 0 30 0 30 -95 3 c-52 2 -99 7 -104 12 -6 6 -52 10 -102 10
-51 0 -96 5 -99 10 -4 6 -78 10 -189 10 -113 0 -186 4 -192 10 -6 6 -52 12
-103 14 -53 1 -96 7 -103 14 -8 8 -67 12 -193 12 -102 0 -185 4 -191 10 -5 5
-47 10 -94 12 l-85 3 0 75 0 75 194 3 c123 1 198 -1 205 -8 6 -6 119 -10 311
-10 249 0 305 -3 321 -15 15 -11 53 -14 166 -15 87 0 149 -4 153 -10 4 -6 72
-10 171 -10 103 0 164 -4 164 -10 0 -6 43 -10 109 -10 63 0 112 -4 116 -10 3
-5 46 -10 94 -10 61 0 93 -4 107 -15 14 -11 51 -14 156 -15 80 0 139 -4 143
-10 4 -6 60 -10 135 -10 75 0 131 -4 135 -10 4 -6 55 -10 120 -10 65 0 116 -4
120 -10 4 -6 54 -10 118 -10 85 0 118 -4 134 -15 17 -12 45 -15 120 -13 l98 3
3 33 3 32 -110 0 c-62 0 -112 4 -116 10 -4 6 -55 10 -120 10 -65 0 -116 4
-120 10 -4 6 -54 10 -119 10 -83 0 -117 4 -132 15 -14 11 -50 14 -146 15 -79
0 -128 4 -128 10 0 6 -55 10 -145 10 -90 0 -145 4 -145 10 0 6 -40 10 -100 10
-60 0 -100 4 -100 10 0 6 -41 10 -103 10 -75 0 -108 4 -123 15 -15 11 -54 14
-176 15 -93 0 -159 4 -163 10 -4 6 -68 10 -161 10 -96 0 -154 4 -154 10 0 6
-58 10 -154 10 -93 0 -157 4 -161 10 -4 6 -76 10 -184 10 -140 0 -181 3 -197
15 -15 11 -59 14 -220 15 -185 0 -202 2 -218 19 -10 11 -16 30 -14 43 3 23 4
23 171 26 137 2 172 0 190 -13 17 -12 54 -15 179 -15 94 0 159 -4 163 -10 4
-6 67 -10 155 -10 88 0 151 -4 155 -10 4 -6 78 -10 190 -10 112 0 186 -4 190
-10 4 -6 93 -10 233 -10 184 -1 231 -3 246 -15 15 -12 53 -15 162 -15 85 0
145 -4 149 -10 4 -6 68 -10 160 -10 92 0 156 -4 160 -10 4 -6 63 -10 146 -10
86 0 139 -4 139 -10 0 -6 50 -10 129 -10 76 0 132 -4 136 -10 4 -6 58 -10 129
-10 92 0 127 -4 142 -15 14 -11 51 -14 156 -15 80 0 139 -4 143 -10 4 -6 59
-10 134 -10 70 0 131 -4 136 -9 6 -6 69 -12 140 -15 72 -4 188 -9 259 -12 77
-3 133 -1 138 4 6 6 7 19 3 31 -6 20 -13 21 -110 21 -58 0 -107 4 -110 10 -3
6 -49 10 -104 10 -70 0 -103 4 -117 15 -14 11 -49 14 -136 15 -67 0 -119 4
-123 10 -4 6 -60 10 -135 10 -75 0 -131 4 -135 10 -4 6 -63 10 -145 10 -82 0
-141 4 -145 10 -3 6 -51 10 -109 10 -80 0 -106 3 -116 15 -10 12 -36 15 -116
15 -58 0 -106 4 -109 10 -4 6 -87 10 -215 10 -128 0 -211 4 -215 10 -4 6 -88
10 -220 10 -132 0 -216 4 -220 10 -4 6 -56 10 -124 10 -93 0 -121 3 -131 15
-10 12 -39 15 -141 15 -74 0 -130 4 -134 10 -4 6 -120 10 -316 10 -199 0 -309
4 -309 10 0 6 -139 10 -398 10 l-398 0 -34 35 -34 35 -487 0 c-315 0 -490 -4
-494 -10z"/>
<path d="M10410 3550 l0 -30 180 0 180 0 0 30 0 30 -180 0 -180 0 0 -30z"/>
<path d="M9672 3518 l3 -23 244 -3 c246 -2 277 1 264 34 -4 12 -48 14 -260 14
l-254 0 3 -22z"/>
<path d="M9646 2991 c-3 -4 -19 -11 -36 -14 -23 -5 -30 -12 -30 -31 0 -13 -7
-29 -15 -36 -10 -8 -15 -31 -15 -65 0 -43 5 -60 26 -84 25 -30 28 -31 115 -31
l89 0 0 29 c0 17 5 33 10 36 18 11 11 45 -9 45 -11 0 -23 -4 -26 -10 -3 -5
-21 -10 -40 -10 -19 0 -37 -4 -40 -10 -11 -17 -35 -11 -35 9 0 11 -4 23 -10
26 -21 13 -11 54 17 67 27 13 64 66 56 81 -6 10 -51 9 -57 -2z"/>
</g>
</svg>
