<?xml version="1.0" standalone="no"?>
<!DOCTYPE svg PUBLIC "-//W3C//DTD SVG 20010904//EN"
 "http://www.w3.org/TR/2001/REC-SVG-20010904/DTD/svg10.dtd">
<svg version="1.0" xmlns="http://www.w3.org/2000/svg"
 width="640.000000pt" height="1280.000000pt" viewBox="0 0 640.000000 1280.000000"
 preserveAspectRatio="xMidYMid meet">
<metadata>
Created by potrace 1.15, written by Peter Selinger 2001-2017
</metadata>
<g transform="translate(0.000000,1280.000000) scale(0.100000,-0.100000)"
fill="#000000" stroke="none">
<path d="M3165 12663 c-27 -70 -153 -334 -280 -587 -328 -657 -397 -860 -397
-1181 0 -221 44 -389 141 -538 l49 -74 -97 -27 c-137 -38 -278 -66 -336 -66
-27 0 -104 9 -170 19 -194 32 -251 35 -335 17 -98 -20 -208 -75 -254 -126
l-36 -40 0 -4733 c0 -3431 3 -4743 11 -4772 21 -76 38 -89 262 -199 372 -184
674 -279 1057 -333 172 -24 573 -24 750 1 412 57 808 180 1220 379 141 68 175
92 191 134 5 15 9 1836 9 4768 l0 4744 -26 20 c-33 26 -64 36 -217 66 -82 16
-181 45 -275 81 -201 77 -266 91 -460 106 l-167 12 42 85 c67 134 95 256 100
441 6 193 -15 326 -87 539 -62 188 -107 286 -353 773 -112 222 -221 448 -242
503 -21 55 -41 103 -44 107 -3 4 -28 -50 -56 -119z"/>
</g>
</svg>
