<?xml version="1.0" standalone="no"?>
<!DOCTYPE svg PUBLIC "-//W3C//DTD SVG 20010904//EN"
 "http://www.w3.org/TR/2001/REC-SVG-20010904/DTD/svg10.dtd">
<svg version="1.0" xmlns="http://www.w3.org/2000/svg"
 width="1280.000000pt" height="1223.000000pt" viewBox="0 0 1280.000000 1223.000000"
 preserveAspectRatio="xMidYMid meet">
<metadata>
Created by potrace 1.15, written by Peter Selinger 2001-2017
</metadata>
<g transform="translate(0.000000,1223.000000) scale(0.100000,-0.100000)"
fill="#000000" stroke="none">
<path d="M7598 12219 c-117 -27 -234 -122 -287 -232 -40 -80 -49 -136 -40
-226 16 -144 103 -271 230 -335 38 -19 89 -38 112 -41 l44 -7 -57 -56 c-61
-62 -105 -142 -123 -227 -13 -63 7 -181 43 -258 49 -104 177 -207 278 -223 44
-7 58 -24 19 -24 -38 0 -159 -65 -205 -109 -97 -95 -149 -223 -137 -339 8 -80
35 -161 71 -215 l26 -39 -30 -32 c-18 -19 -124 -232 -277 -556 -294 -622 -294
-623 -295 -677 0 -24 -1 -43 -2 -43 -2 0 -28 10 -58 22 -47 19 -74 22 -180 22
-142 -1 -199 -16 -295 -80 -72 -47 -118 -102 -163 -193 -31 -63 -38 -88 -40
-152 -9 -188 77 -352 232 -443 116 -69 315 -86 449 -38 75 27 164 88 204 140
17 23 34 39 36 35 2 -5 41 -120 87 -258 175 -531 506 -1409 564 -1499 112
-173 258 -268 511 -335 l40 -10 -3 -81 c-2 -44 -5 -80 -7 -80 -2 0 -60 18
-129 39 -180 57 -297 75 -426 67 -132 -8 -272 -40 -308 -70 -21 -18 -45 -25
-104 -30 -42 -4 -103 -16 -135 -27 -171 -59 -306 -218 -336 -397 -12 -69 -15
-73 -68 -121 l-56 -50 -16 117 c-21 150 -63 239 -151 328 -268 267 -713 159
-835 -203 -26 -78 -29 -247 -5 -361 41 -202 176 -359 356 -413 l70 -21 -39
-42 c-21 -22 -64 -68 -95 -101 -38 -39 -66 -81 -82 -121 -24 -60 -25 -65 -35
-545 -6 -266 -14 -601 -17 -744 -7 -278 0 -346 45 -434 48 -93 93 -121 446
-281 468 -212 882 -363 1480 -540 424 -126 786 -238 950 -294 237 -81 299 -91
555 -91 134 0 226 4 245 11 55 20 464 316 690 498 257 207 527 450 927 833 86
82 123 146 157 273 16 59 131 974 131 1042 0 13 10 12 61 -9 74 -30 157 -43
224 -35 l48 5 -22 -31 c-12 -18 -36 -62 -53 -99 -28 -61 -32 -80 -36 -189 -7
-193 30 -333 119 -451 35 -47 37 -53 19 -53 -37 0 -119 -37 -184 -84 -81 -57
-149 -151 -183 -249 -24 -67 -25 -81 -21 -222 4 -117 9 -162 25 -206 l20 -55
-62 -33 c-88 -45 -176 -139 -223 -238 l-37 -78 0 -173 c0 -168 -1 -173 -20
-168 -49 14 -155 17 -210 7 -185 -34 -358 -199 -399 -380 -23 -99 -8 -319 27
-412 46 -121 113 -207 211 -271 288 -187 659 -25 751 327 16 64 19 203 6 274
l-9 43 32 -7 c176 -37 331 8 457 134 99 99 168 260 169 392 0 47 -28 232 -40
265 -6 14 -10 27 -10 29 0 3 24 17 53 31 130 66 236 225 265 398 15 87 15 99
-5 216 -22 136 -52 211 -110 279 -38 45 -40 51 -15 51 10 0 51 16 91 35 137
66 239 197 281 361 24 93 25 153 4 282 -25 158 -91 273 -205 357 -88 65 -155
87 -280 94 l-107 6 38 63 c48 79 80 196 80 293 0 82 -21 211 -44 276 -58 163
-230 300 -404 322 -39 5 -80 8 -90 6 -9 -2 -39 -6 -65 -9 l-49 -6 26 31 c14
17 26 35 26 41 0 5 116 310 259 676 142 367 264 691 270 720 14 67 14 126 0
194 -14 70 -80 280 -139 443 -65 178 -104 304 -260 835 -140 477 -263 787
-381 961 -71 105 -226 243 -360 321 -110 63 -1353 401 -2479 673 -129 32 -236
58 -238 60 -1 1 5 31 14 66 58 226 -72 451 -301 521 l-70 22 38 8 c87 18 190
90 247 173 57 83 90 232 70 319 -37 166 -164 295 -333 337 l-47 11 50 51 c125
125 163 320 92 472 -56 119 -161 207 -287 240 -64 16 -197 18 -257 4z m3841
-7317 c-43 -44 -77 -90 -95 -130 -28 -60 -30 -62 -59 -56 -16 4 -32 8 -33 9
-2 2 1 27 7 55 6 28 11 78 11 110 l0 60 38 1 c20 0 55 4 77 8 22 5 58 9 80 10
l41 1 -67 -68z"/>
<path d="M5670 8229 c-167 -32 -339 -200 -385 -374 -66 -254 93 -508 353 -564
74 -15 215 -14 290 4 90 21 158 59 224 126 98 98 143 224 137 384 -4 78 -9
100 -37 158 -66 134 -183 229 -323 262 -69 16 -187 18 -259 4z"/>
<path d="M4607 8125 c-114 -31 -232 -121 -308 -235 -57 -84 -74 -145 -74 -265
0 -106 1 -113 37 -188 67 -140 188 -237 335 -267 87 -18 254 -8 328 20 180 69
308 243 329 450 22 214 -132 428 -349 485 -72 18 -231 18 -298 0z"/>
<path d="M3590 8102 c-154 -41 -280 -163 -340 -329 -19 -53 -22 -77 -18 -161
3 -90 7 -106 40 -174 46 -92 122 -167 215 -211 63 -29 77 -32 192 -35 149 -5
222 11 309 68 132 85 214 247 214 424 1 60 -5 96 -21 138 -48 124 -165 237
-285 274 -79 24 -228 28 -306 6z"/>
<path d="M2591 8060 c-152 -32 -309 -172 -375 -334 l-23 -55 -34 45 c-84 113
-240 183 -406 184 -200 0 -379 -109 -463 -284 -21 -45 -41 -99 -45 -121 l-6
-40 -55 53 c-163 158 -461 186 -656 61 -99 -64 -183 -180 -213 -295 -25 -97
-6 -302 36 -386 11 -21 19 -41 19 -46 0 -5 -19 -15 -42 -23 -146 -48 -274
-197 -314 -365 -20 -84 -14 -250 12 -334 62 -207 224 -352 422 -380 41 -6 78
-8 83 -4 23 14 5 -14 -42 -63 -30 -32 -65 -84 -87 -131 -33 -72 -36 -84 -40
-198 -8 -221 43 -379 161 -497 207 -208 512 -204 707 10 126 137 170 307 136
523 -27 173 -100 294 -227 379 -74 50 -171 81 -250 81 -32 0 -59 2 -59 5 0 2
20 25 44 51 88 92 146 239 146 375 0 71 -37 234 -65 289 -9 17 -15 33 -13 35
2 2 27 13 57 25 170 66 283 203 320 385 l17 84 53 -54 c259 -262 731 -147 837
204 l17 60 64 -69 c102 -110 222 -160 385 -160 176 0 327 75 419 207 16 23 46
84 66 135 33 85 37 102 37 193 0 81 -4 111 -23 158 -49 126 -174 245 -294 283
-61 19 -242 27 -306 14z"/>
<path d="M1769 5516 c-135 -38 -262 -148 -327 -283 -36 -76 -37 -82 -40 -208
-6 -227 42 -371 167 -496 196 -196 486 -196 682 0 101 101 168 260 169 399 0
66 -29 228 -51 284 -57 146 -189 262 -344 303 -70 18 -192 18 -256 1z"/>
<path d="M5093 5515 c-87 -24 -154 -64 -223 -134 -120 -122 -154 -218 -146
-415 7 -149 17 -196 63 -294 70 -148 219 -259 382 -285 291 -45 570 219 571
538 0 192 -57 353 -164 459 -126 125 -314 176 -483 131z"/>
<path d="M2941 5419 c-182 -35 -352 -205 -392 -388 -15 -71 -5 -289 17 -361
70 -232 266 -391 483 -390 86 1 141 14 221 53 184 90 303 312 287 536 -15 199
-54 300 -161 407 -126 126 -286 176 -455 143z"/>
<path d="M4115 5318 c-193 -19 -388 -200 -424 -395 -13 -64 -3 -273 16 -348
58 -233 256 -397 483 -397 238 0 436 165 495 413 19 82 19 170 0 288 -21 127
-59 205 -144 291 -117 119 -250 166 -426 148z"/>
<path d="M6695 1336 c-234 -44 -408 -253 -409 -491 0 -94 45 -262 97 -360 42
-79 146 -182 224 -223 288 -151 621 3 703 324 35 136 24 248 -40 408 -39 96
-64 137 -118 193 -121 124 -292 180 -457 149z"/>
<path d="M7759 1176 c-182 -51 -327 -217 -361 -413 -13 -80 -7 -133 32 -273
35 -123 77 -197 160 -280 83 -84 147 -120 257 -146 249 -59 498 102 574 371
22 80 18 236 -10 320 -76 233 -181 351 -370 416 -64 22 -209 25 -282 5z"/>
<path d="M9957 1155 c-183 -50 -322 -201 -362 -392 -20 -94 -19 -113 16 -247
41 -162 84 -244 173 -331 109 -108 217 -155 356 -155 129 0 241 48 335 144 72
73 109 138 135 242 37 143 25 244 -48 419 -41 97 -53 117 -116 180 -106 107
-221 155 -366 154 -41 0 -97 -7 -123 -14z"/>
<path d="M8841 1125 c-200 -56 -341 -230 -365 -450 -9 -77 37 -265 90 -374
107 -219 359 -343 579 -286 210 55 357 243 372 475 3 47 1 110 -5 141 -13 68
-73 226 -107 279 -45 71 -125 140 -214 183 -81 39 -90 41 -191 44 -72 2 -122
-2 -159 -12z"/>
</g>
</svg>
