<?xml version="1.0" standalone="no"?>
<!DOCTYPE svg PUBLIC "-//W3C//DTD SVG 20010904//EN"
 "http://www.w3.org/TR/2001/REC-SVG-20010904/DTD/svg10.dtd">
<svg version="1.0" xmlns="http://www.w3.org/2000/svg"
 width="640.000000pt" height="1280.000000pt" viewBox="0 0 640.000000 1280.000000"
 preserveAspectRatio="xMidYMid meet">
<g transform="translate(0.000000,1280.000000) scale(0.100000,-0.100000)"
fill="#000000" stroke="none">
<path d="M3280 12789 c-36 -4 -137 -15 -225 -24 -275 -29 -544 -78 -710 -131
-112 -36 -315 -125 -315 -139 0 -15 96 -735 109 -816 15 -93 61 -534 61 -585
0 -39 -3 -43 -57 -79 -81 -54 -156 -134 -189 -202 -25 -50 -29 -70 -29 -143 0
-72 4 -92 27 -135 36 -70 96 -135 179 -195 l71 -52 -6 -331 c-7 -319 -12 -723
-37 -2627 -6 -476 -14 -984 -17 -1129 l-7 -264 -117 -52 c-527 -235 -981 -612
-1287 -1068 -461 -687 -649 -1507 -520 -2270 74 -435 248 -875 493 -1240 392
-585 972 -993 1693 -1191 241 -66 544 -110 758 -111 124 0 363 24 507 51 575
107 1134 383 1564 771 635 573 1033 1524 1001 2393 -18 472 -132 891 -366
1346 -75 146 -251 425 -287 455 -9 7 14 -29 51 -81 276 -390 481 -894 550
-1357 90 -598 -17 -1210 -316 -1818 -196 -398 -480 -758 -783 -989 -119 -91
-108 -61 19 52 315 282 573 638 728 1002 194 457 263 983 197 1500 -15 119
-18 130 -36 130 -13 0 -15 8 -8 53 11 78 6 116 -22 174 -62 128 -260 252 -569
357 l-120 41 -27 54 c-38 76 -81 116 -165 158 -64 31 -84 36 -168 41 -112 6
-197 -13 -270 -59 l-45 -29 -183 29 c-494 80 -953 114 -1512 114 -498 0 -837
-22 -1261 -83 l-202 -29 -133 45 c-187 63 -229 79 -352 137 -66 31 -111 47
-116 41 -5 -5 -51 -103 -101 -219 -51 -115 -96 -215 -101 -221 -5 -6 -46 -31
-90 -55 -45 -24 -104 -64 -131 -88 -72 -65 -78 -48 -33 91 183 556 466 1000
864 1355 111 100 232 190 379 285 135 87 485 263 508 254 13 -5 15 -20 12 -94
-3 -78 -6 -92 -30 -120 -54 -64 -61 -147 -18 -217 28 -45 35 -40 15 8 -17 40
-20 103 -6 111 5 3 12 -11 16 -32 7 -40 44 -111 69 -131 13 -11 15 -8 13 16
-3 44 29 40 142 -17 56 -27 101 -47 101 -44 0 4 -21 29 -46 56 -64 69 -157
280 -141 322 6 16 111 66 137 66 9 0 43 9 76 20 88 31 236 66 359 87 154 25
620 25 815 0 264 -34 583 -139 672 -222 26 -24 27 -26 13 -70 -21 -70 -103
-193 -177 -266 -38 -37 -68 -69 -68 -71 0 -3 21 -1 48 3 26 4 53 8 60 8 22 1
13 -18 -15 -33 -55 -30 -10 -15 64 21 143 70 214 166 198 267 -12 79 -17 298
-6 309 6 6 7 16 1 27 -6 11 -6 257 0 641 5 343 14 986 20 1429 6 443 15 1086
20 1430 6 344 10 673 10 732 l0 106 79 56 c183 128 252 295 190 462 -26 69
-123 175 -210 231 l-61 38 6 115 c3 63 10 167 16 230 5 63 14 178 20 255 6 77
15 192 20 255 5 63 14 174 19 245 6 72 15 192 21 268 6 75 9 141 5 146 -9 15
-252 107 -370 140 -292 82 -715 128 -935 100z m-1069 -1825 c4 -32 7 -86 8
-119 2 -97 17 -133 80 -195 68 -66 178 -123 349 -180 256 -86 477 -114 827
-107 253 5 372 19 548 63 234 59 389 147 442 253 14 27 16 48 10 105 -10 96
-8 197 3 208 12 12 119 -68 155 -115 108 -142 89 -310 -49 -436 -31 -28 -67
-54 -80 -57 -13 -3 -24 -10 -24 -14 0 -24 -217 -119 -371 -164 -263 -76 -773
-101 -1129 -56 -295 38 -633 145 -750 239 -19 15 -45 31 -56 35 -30 9 -127
114 -155 166 -19 37 -24 60 -24 130 0 91 16 137 72 205 34 40 116 106 128 102
6 -2 13 -30 16 -63z m1809 -481 c-51 -22 -231 -60 -342 -72 -224 -25 -626 -7
-783 34 -111 29 -88 32 100 9 212 -24 524 -29 705 -10 150 16 308 41 319 51 2
3 11 5 20 4 9 0 0 -8 -19 -16z m-1643 -279 c54 -25 109 -52 123 -59 28 -14
178 -58 255 -75 104 -23 377 -50 570 -56 374 -12 671 33 960 146 61 24 103 36
109 30 10 -10 10 -123 -4 -1570 -24 -2406 -28 -2661 -40 -2675 -7 -9 -8 -15 0
-20 16 -10 13 -174 -3 -181 -7 -2 -45 13 -83 36 -247 145 -705 230 -1159 217
-316 -9 -552 -54 -750 -143 -58 -26 -109 -44 -113 -40 -4 4 -7 37 -7 74 l0 66
50 19 c28 10 68 22 90 27 22 4 110 26 196 49 297 77 587 101 969 79 132 -8
123 3 -20 22 -101 14 -452 14 -570 1 -222 -26 -449 -77 -620 -140 -46 -17 -88
-31 -92 -31 -11 0 -10 1079 2 2740 9 1296 14 1530 30 1530 5 0 52 -21 107 -46z
m-2052 -6593 c20 -62 20 -100 0 -226 -50 -320 -34 -762 41 -1080 7 -33 13 -71
13 -85 -1 -38 -35 45 -64 155 -97 366 -114 822 -45 1218 15 81 32 87 55 18z
m112 -217 c-10 -10 -36 15 -54 50 l-15 31 38 -37 c21 -21 35 -40 31 -44z m-7
-71 c0 -20 -3 -24 -11 -16 -7 7 -9 19 -6 27 10 24 17 19 17 -11z"/>
<path d="M3693 6113 c9 -2 23 -2 30 0 6 3 -1 5 -18 5 -16 0 -22 -2 -12 -5z"/>
<path d="M3758 6103 c7 -3 16 -2 19 1 4 3 -2 6 -13 5 -11 0 -14 -3 -6 -6z"/>
<path d="M3820 6090 c14 -4 34 -8 45 -8 16 0 15 2 -5 8 -14 4 -34 8 -45 8 -16
0 -15 -2 5 -8z"/>
<path d="M3898 6073 c7 -3 16 -2 19 1 4 3 -2 6 -13 5 -11 0 -14 -3 -6 -6z"/>
<path d="M3938 6063 c7 -3 16 -2 19 1 4 3 -2 6 -13 5 -11 0 -14 -3 -6 -6z"/>
<path d="M3985 6051 c11 -4 36 -11 55 -15 24 -4 29 -3 15 3 -11 4 -36 11 -55
15 -24 4 -29 3 -15 -3z"/>
<path d="M5145 5460 c10 -11 20 -20 23 -20 3 0 -3 9 -13 20 -10 11 -20 20 -23
20 -3 0 3 -9 13 -20z"/>
<path d="M5230 5385 c19 -19 36 -35 39 -35 3 0 -10 16 -29 35 -19 19 -36 35
-39 35 -3 0 10 -16 29 -35z"/>
<path d="M2240 5386 c0 -2 8 -10 18 -17 15 -13 16 -12 3 4 -13 16 -21 21 -21
13z"/>
<path d="M2783 5316 l-28 -25 20 -20 c26 -26 115 -49 226 -57 125 -10 119 6
-33 89 -83 46 -142 50 -185 13z"/>
<path d="M3186 5235 c-9 -9 -16 -23 -16 -30 0 -17 31 -35 58 -35 25 0 55 34
50 57 -4 25 -69 30 -92 8z"/>
<path d="M5425 5190 c21 -22 41 -40 44 -40 3 0 -13 18 -34 40 -21 22 -41 40
-44 40 -3 0 13 -18 34 -40z"/>
<path d="M2660 5201 c0 -19 29 -29 135 -50 196 -37 276 -44 503 -44 291 1 319
18 45 28 -241 8 -438 27 -563 54 -105 23 -120 25 -120 12z"/>
<path d="M5490 5115 c13 -14 26 -25 28 -25 3 0 -5 11 -18 25 -13 14 -26 25
-28 25 -3 0 5 -11 18 -25z"/>
<path d="M5535 5060 c10 -11 20 -20 23 -20 3 0 -3 9 -13 20 -10 11 -20 20 -23
20 -3 0 3 -9 13 -20z"/>
</g>
</svg>
