<?xml version="1.0" standalone="no"?>
<!DOCTYPE svg PUBLIC "-//W3C//DTD SVG 20010904//EN"
 "http://www.w3.org/TR/2001/REC-SVG-20010904/DTD/svg10.dtd">
<svg version="1.0" xmlns="http://www.w3.org/2000/svg"
 width="640.000000pt" height="1280.000000pt" viewBox="0 0 640.000000 1280.000000"
 preserveAspectRatio="xMidYMid meet">
<metadata>
Created by potrace 1.15, written by Peter Selinger 2001-2017
</metadata>
<g transform="translate(0.000000,1280.000000) scale(0.100000,-0.100000)"
fill="#000000" stroke="none">
<path d="M3095 12794 c-22 -2 -107 -8 -190 -14 -487 -35 -827 -90 -1112 -181
-85 -27 -339 -126 -384 -149 -14 -8 -13 -23 2 -152 10 -79 25 -203 34 -277 8
-74 19 -139 24 -145 5 -6 16 -87 25 -181 10 -93 24 -199 31 -235 37 -177 57
-327 61 -455 2 -77 6 -156 9 -176 6 -35 6 -36 -57 -69 -255 -135 -444 -324
-499 -498 -90 -288 41 -550 387 -770 109 -70 364 -191 499 -237 61 -21 113
-41 117 -44 8 -7 -46 -509 -60 -555 -8 -28 -16 -32 -133 -66 -311 -91 -595
-235 -873 -442 -190 -141 -318 -286 -365 -412 -22 -58 -21 -50 -71 -1571 -17
-500 -39 -1182 -50 -1515 -26 -804 -38 -1133 -51 -1505 -16 -436 -17 -799 -1
-920 101 -785 320 -1459 531 -1634 199 -165 735 -368 1286 -486 177 -38 375
-69 402 -63 10 2 -9 8 -42 12 -223 28 -590 121 -855 217 -343 122 -553 231
-652 337 -135 144 -263 512 -382 1097 -104 516 -114 643 -92 1275 9 272 34
1037 56 1700 97 2934 100 2995 115 3046 67 222 392 517 793 719 l107 54 6 -72
c3 -40 10 -85 17 -100 10 -24 9 -29 -6 -34 -9 -3 -59 -23 -111 -44 -186 -77
-295 -151 -360 -247 -22 -33 -88 -112 -146 -177 -106 -117 -107 -118 -104
-164 2 -44 0 -48 -63 -113 -99 -101 -108 -131 -108 -371 0 -106 -25 -975 -55
-1932 -30 -957 -62 -1992 -72 -2300 l-17 -560 43 -333 c23 -183 53 -377 66
-430 47 -195 149 -455 308 -783 l84 -176 227 -141 c271 -170 343 -201 686
-296 111 -31 366 -75 545 -95 280 -32 807 -42 1097 -21 191 14 430 46 557 76
57 13 106 23 108 20 2 -2 -16 -8 -39 -15 -24 -6 -94 -24 -155 -41 -137 -36
-322 -74 -463 -94 -166 -24 -170 -25 -75 -20 50 3 169 19 265 35 587 99 1224
320 1478 512 78 59 146 165 227 351 147 339 286 936 325 1403 13 152 14 133
-40 1608 -9 253 -15 414 -40 1120 -6 154 -15 402 -20 550 -5 149 -15 401 -20
560 -6 160 -15 405 -20 545 -5 140 -14 406 -20 590 -8 222 -16 355 -26 394
-19 79 -73 165 -162 258 -98 103 -180 168 -353 284 -141 94 -437 249 -527 275
-23 7 -46 17 -51 23 -5 6 -30 116 -56 245 -37 190 -58 347 -65 492 0 4 26 17
58 30 243 96 493 260 608 398 63 75 127 200 143 279 24 117 5 238 -57 356 -71
137 -271 309 -480 415 -54 27 -62 35 -62 60 0 16 11 141 25 277 13 137 47 488
74 779 28 292 53 547 56 567 l5 38 -71 35 c-39 20 -110 49 -157 65 -48 15 -98
33 -112 38 -49 21 -460 121 -473 116 -8 -3 -54 2 -103 10 -196 33 -367 47
-624 51 -146 2 -283 1 -305 -1z m-1476 -2239 c6 -77 14 -173 17 -213 l6 -72
72 -67 c39 -36 61 -61 49 -54 -74 38 -222 -30 -264 -123 -26 -56 -24 -124 6
-212 54 -160 136 -289 249 -390 57 -51 81 -84 60 -84 -16 0 -208 110 -299 171
-113 76 -246 207 -294 290 -56 99 -76 172 -76 289 0 122 16 178 78 285 50 85
193 232 297 304 65 45 75 50 81 34 3 -10 11 -81 18 -158z m3260 100 c90 -61
211 -161 166 -137 -11 5 -29 20 -40 32 -20 22 -111 89 -181 133 l-41 25 -12
-121 c-6 -67 -16 -171 -22 -232 -7 -72 -17 -121 -28 -141 l-19 -31 52 -16 c28
-9 61 -23 71 -31 11 -9 -9 -4 -44 10 -35 14 -74 24 -88 21 l-24 -4 20 21 c30
32 40 67 52 189 6 61 14 153 19 202 5 50 10 102 10 118 0 15 3 27 7 27 3 0 49
-29 102 -65z m217 -187 l29 -33 -32 29 c-18 17 -33 31 -33 33 0 8 8 1 36 -29z
m54 -69 c15 -28 5 -23 -15 7 -9 15 -12 23 -6 20 6 -4 16 -16 21 -27z m28 -54
c-3 -3 -9 2 -12 12 -6 14 -5 15 5 6 7 -7 10 -15 7 -18z m23 -41 c5 -15 8 -29
5 -31 -2 -2 -8 10 -14 26 -13 38 -5 41 9 5z m16 -66 c-3 -8 -6 -5 -6 6 -1 11
2 17 5 13 3 -3 4 -12 1 -19z m20 -191 c-2 -23 -3 -1 -3 48 0 50 1 68 3 42 2
-26 2 -67 0 -90z m-351 41 l29 -33 -32 29 c-31 28 -38 36 -30 36 2 0 16 -15
33 -32z m42 -63 c-3 -3 -9 2 -12 12 -6 14 -5 15 5 6 7 -7 10 -15 7 -18z m19
-107 c-2 -13 -4 -5 -4 17 -1 22 1 32 4 23 2 -10 2 -28 0 -40z m270 10 c-3 -8
-6 -5 -6 6 -1 11 2 17 5 13 3 -3 4 -12 1 -19z m-16 -45 c-12 -20 -14 -14 -5
12 4 9 9 14 11 11 3 -2 0 -13 -6 -23z m-11 -31 c0 -5 -7 -17 -15 -28 -14 -18
-14 -17 -4 9 12 27 19 34 19 19z m-270 -49 c-11 -17 -11 -17 -6 0 3 10 7 26 7
35 1 15 2 15 6 0 2 -10 -1 -25 -7 -35z m230 -23 c-6 -11 -13 -20 -16 -20 -2 0
0 9 6 20 6 11 13 20 16 20 2 0 0 -9 -6 -20z m-249 -27 c-12 -20 -14 -14 -5 12
4 9 9 14 11 11 3 -2 0 -13 -6 -23z m229 -7 c0 -2 -8 -10 -17 -17 -16 -13 -17
-12 -4 4 13 16 21 21 21 13z m-269 -83 c-10 -21 -27 -47 -35 -58 -9 -11 -2 8
16 42 18 34 34 60 36 58 2 -2 -6 -20 -17 -42z m174 -23 c-38 -38 -105 -95
-148 -126 -71 -51 -282 -174 -299 -174 -4 0 34 42 86 93 51 50 103 106 114
122 12 17 22 27 22 23 0 -13 -120 -157 -145 -174 -14 -9 -24 -19 -21 -21 8 -8
187 99 264 157 43 32 102 84 132 114 30 31 57 56 59 56 3 0 -26 -31 -64 -70z
m-505 -380 c-8 -5 -22 -9 -30 -9 -10 0 -8 3 5 9 27 12 43 12 25 0z m-63 -132
c-2 -13 -4 -5 -4 17 -1 22 1 32 4 23 2 -10 2 -28 0 -40z m-354 -27 c15 -22 27
-43 27 -47 0 -4 -14 12 -30 34 -56 78 -60 67 -60 -162 0 -187 -2 -205 -17
-208 -10 -2 27 -11 82 -20 77 -13 101 -14 107 -5 5 8 8 7 8 -5 0 -22 -3 -22
-110 -3 -70 12 -209 15 -792 15 -488 0 -708 3 -708 11 0 27 66 171 98 215 29
38 54 57 112 86 81 39 82 35 -6 53 -15 4 -25 7 -23 8 2 1 90 -1 194 -4 334
-11 734 12 965 55 116 21 121 21 153 -23z m-1326 -27 c-3 -3 -12 -4 -19 -1 -8
3 -5 6 6 6 11 1 17 -2 13 -5z m1383 -89 c7 -25 11 -47 9 -50 -2 -2 -11 21 -20
50 -9 30 -13 52 -9 50 4 -2 13 -25 20 -50z m17 -97 c-3 -7 -5 -2 -5 12 0 14 2
19 5 13 2 -7 2 -19 0 -25z m10 -50 c-3 -7 -5 -2 -5 12 0 14 2 19 5 13 2 -7 2
-19 0 -25z m10 -40 c-3 -8 -6 -5 -6 6 -1 11 2 17 5 13 3 -3 4 -12 1 -19z m10
-70 c-3 -7 -5 -2 -5 12 0 14 2 19 5 13 2 -7 2 -19 0 -25z m374 -146 c-7 -2
-18 1 -23 6 -8 8 -4 9 13 5 13 -4 18 -8 10 -11z m463 -288 c56 -37 140 -98
188 -136 93 -74 251 -235 281 -287 26 -44 15 -39 -16 8 -70 106 -255 274 -425
385 -91 59 -298 176 -311 176 -3 0 2 -5 12 -11 14 -8 17 -24 17 -89 l0 -79
101 -53 c70 -36 122 -72 164 -113 34 -33 41 -42 16 -19 -25 23 -66 55 -91 71
-96 64 -310 160 -325 145 -4 -4 0 9 10 28 10 19 20 65 23 103 l5 67 125 -65
c69 -36 170 -95 226 -131z m-425 -61 c-7 -10 -19 -25 -27 -35 -9 -11 -14 -49
-15 -122 l-2 -106 28 -6 c16 -3 27 -8 25 -10 -2 -2 -76 11 -164 29 l-161 32
49 24 c80 39 160 95 218 155 54 56 74 72 49 39z m526 -233 c10 -11 16 -20 13
-20 -3 0 -13 9 -23 20 -10 11 -16 20 -13 20 3 0 13 -9 23 -20z m45 -55 c13
-14 21 -25 18 -25 -2 0 -15 11 -28 25 -13 14 -21 25 -18 25 2 0 15 -11 28 -25z
m-523 -1 c-3 -3 -12 -4 -19 -1 -8 3 -5 6 6 6 11 1 17 -2 13 -5z m643 -129 c47
-47 82 -85 80 -85 -3 0 -43 38 -90 85 -47 47 -82 85 -80 85 3 0 43 -38 90 -85z
m238 -10 c-3 -3 -9 2 -12 12 -6 14 -5 15 5 6 7 -7 10 -15 7 -18z m39 -117 c-3
-7 -5 -2 -5 12 0 14 2 19 5 13 2 -7 2 -19 0 -25z m10 -135 c-2 -21 -4 -4 -4
37 0 41 2 58 4 38 2 -21 2 -55 0 -75z m-142 55 c19 -22 19 -22 -10 2 -48 40
-51 43 -30 32 11 -6 29 -21 40 -34z m80 -78 c10 -11 16 -20 13 -20 -3 0 -13 9
-23 20 -10 11 -16 20 -13 20 3 0 13 -9 23 -20z m75 -137 c0 -32 -5 -28 -14 10
-4 19 -3 26 4 22 5 -3 10 -18 10 -32z m-10 -270 c-11 -17 -11 -17 -6 0 3 10 7
28 7 40 2 22 2 22 6 0 2 -12 -1 -30 -7 -40z m-23 -155 c-2 -24 -4 -7 -4 37 0
44 2 63 4 43 2 -21 2 -57 0 -80z m40 -50 c-2 -29 -3 -6 -3 52 0 58 1 81 3 53
2 -29 2 -77 0 -105z m-30 -170 c-2 -18 -4 -4 -4 32 0 36 2 50 4 33 2 -18 2
-48 0 -65z m40 -185 c-1 -43 -3 -8 -3 77 0 85 2 120 3 78 2 -43 2 -113 0 -155z
m-30 -45 c-2 -24 -4 -5 -4 42 0 47 2 66 4 43 2 -24 2 -62 0 -85z m40 -265 c-2
-32 -3 -8 -3 52 0 61 1 87 3 58 2 -29 2 -78 0 -110z m-30 35 c-2 -18 -4 -4 -4
32 0 36 2 50 4 33 2 -18 2 -48 0 -65z m10 -231 c-2 -23 -3 -1 -3 48 0 50 1 68
3 42 2 -26 2 -67 0 -90z m30 -144 c-2 -32 -3 -6 -3 57 0 63 1 89 3 58 2 -32 2
-84 0 -115z m-20 -80 c-2 -21 -4 -6 -4 32 0 39 2 55 4 38 2 -18 2 -50 0 -70z
m30 -225 c-2 -29 -3 -8 -3 47 0 55 1 79 3 53 2 -26 2 -71 0 -100z m-20 15 c-2
-21 -4 -6 -4 32 0 39 2 55 4 38 2 -18 2 -50 0 -70z m10 -255 c-2 -18 -4 -6 -4
27 0 33 2 48 4 33 2 -15 2 -42 0 -60z m20 -85 c-2 -32 -3 -6 -3 57 0 63 1 89
3 58 2 -32 2 -84 0 -115z m4 -363 l-10 -55 4 64 c3 35 6 87 7 115 l2 51 3 -60
c2 -33 -1 -85 -6 -115z m18 -315 c1 -55 6 -203 11 -330 5 -126 9 -291 8 -365
-2 -171 -4 -128 -18 315 -5 198 -12 403 -14 455 -3 54 -1 80 3 60 4 -19 8 -80
10 -135z m44 -1495 c3 -180 2 -220 -3 -125 -4 77 -10 286 -13 465 -4 242 -3
274 3 125 4 -110 10 -319 13 -465z m4 -362 c-3 -8 -6 -5 -6 6 -1 11 2 17 5 13
3 -3 4 -12 1 -19z m10 -135 c-2 -16 -4 -5 -4 22 0 28 2 40 4 28 2 -13 2 -35 0
-50z m0 -235 c-2 -24 -4 -5 -4 42 0 47 2 66 4 43 2 -24 2 -62 0 -85z m-20 30
c-2 -13 -4 -3 -4 22 0 25 2 35 4 23 2 -13 2 -33 0 -45z m-10 -120 c-3 -7 -5
-2 -5 12 0 14 2 19 5 13 2 -7 2 -19 0 -25z m-66 -624 c-5 -21 -9 -30 -10 -19
-1 24 10 67 15 62 3 -2 0 -22 -5 -43z m-14 -76 c-3 -8 -6 -5 -6 6 -1 11 2 17
5 13 3 -3 4 -12 1 -19z m-10 -50 c-3 -7 -5 -2 -5 12 0 14 2 19 5 13 2 -7 2
-19 0 -25z m-10 -40 c-3 -8 -6 -5 -6 6 -1 11 2 17 5 13 3 -3 4 -12 1 -19z
m-10 -50 c-3 -7 -5 -2 -5 12 0 14 2 19 5 13 2 -7 2 -19 0 -25z m-10 -40 c-3
-8 -6 -5 -6 6 -1 11 2 17 5 13 3 -3 4 -12 1 -19z m-10 -40 c-3 -8 -6 -5 -6 6
-1 11 2 17 5 13 3 -3 4 -12 1 -19z m-10 -40 c-3 -8 -6 -5 -6 6 -1 11 2 17 5
13 3 -3 4 -12 1 -19z m-118 -37 c-6 -18 -13 -30 -15 -28 -2 2 1 18 7 36 6 18
13 30 15 28 2 -2 -1 -18 -7 -36z m108 -3 c-3 -8 -6 -5 -6 6 -1 11 2 17 5 13 3
-3 4 -12 1 -19z m-20 -70 c-3 -8 -6 -5 -6 6 -1 11 2 17 5 13 3 -3 4 -12 1 -19z
m-133 -47 c-9 -23 -18 -40 -20 -38 -2 2 4 22 13 45 9 23 18 40 20 38 2 -2 -4
-22 -13 -45z m113 -23 c-3 -8 -6 -5 -6 6 -1 11 2 17 5 13 3 -3 4 -12 1 -19z
m-146 -55 c-12 -20 -14 -14 -5 12 4 9 9 14 11 11 3 -2 0 -13 -6 -23z m-20 -50
c-12 -20 -14 -14 -5 12 4 9 9 14 11 11 3 -2 0 -13 -6 -23z m-20 -50 c-12 -20
-14 -14 -5 12 4 9 9 14 11 11 3 -2 0 -13 -6 -23z m113 -57 c-14 -37 -28 -65
-30 -63 -2 2 8 33 23 70 14 37 28 65 30 63 2 -2 -8 -34 -23 -70z m-143 -13
c-12 -20 -14 -14 -5 12 4 9 9 14 11 11 3 -2 0 -13 -6 -23z m-30 -70 c-11 -21
-20 -35 -21 -31 0 12 33 78 38 74 2 -2 -6 -21 -17 -43z m114 -52 c-21 -43 -29
-39 -8 4 9 19 18 33 21 31 2 -2 -4 -18 -13 -35z m-154 -38 c-11 -21 -20 -35
-21 -31 0 12 33 78 38 74 2 -2 -6 -21 -17 -43z m110 -40 c-5 -10 -17 -27 -26
-38 -16 -19 -17 -19 -3 5 26 46 29 50 34 50 3 0 0 -8 -5 -17z m-156 -63 c-26
-51 -98 -131 -165 -184 l-35 -27 55 27 c77 38 154 88 209 137 29 26 26 20 -9
-13 -32 -30 -94 -77 -139 -104 -73 -43 -312 -156 -329 -156 -12 0 183 103 195
103 7 0 10 4 8 7 -3 4 13 19 35 34 65 43 143 128 169 184 14 28 26 50 28 48 3
-2 -7 -27 -22 -56z"/>
<path d="M3998 9113 c7 -3 16 -2 19 1 4 3 -2 6 -13 5 -11 0 -14 -3 -6 -6z"/>
<path d="M3948 9103 c7 -3 16 -2 19 1 4 3 -2 6 -13 5 -11 0 -14 -3 -6 -6z"/>
<path d="M4737 8449 c7 -7 15 -10 18 -7 3 3 -2 9 -12 12 -14 6 -15 5 -6 -5z"/>
<path d="M2728 33 c6 -2 18 -2 25 0 6 3 1 5 -13 5 -14 0 -19 -2 -12 -5z"/>
<path d="M3548 23 c6 -2 18 -2 25 0 6 3 1 5 -13 5 -14 0 -19 -2 -12 -5z"/>
</g>
</svg>
