<?xml version="1.0" standalone="no"?>
<!DOCTYPE svg PUBLIC "-//W3C//DTD SVG 20010904//EN"
 "http://www.w3.org/TR/2001/REC-SVG-20010904/DTD/svg10.dtd">
<svg version="1.0" xmlns="http://www.w3.org/2000/svg"
 width="1280.000000pt" height="589.000000pt" viewBox="0 0 1280.000000 589.000000"
 preserveAspectRatio="xMidYMid meet">
<metadata>
Created by potrace 1.15, written by Peter Selinger 2001-2017
</metadata>
<g transform="translate(0.000000,589.000000) scale(0.100000,-0.100000)"
fill="#000000" stroke="none">
<path d="M9573 5768 c-741 -658 -1307 -1040 -1580 -1065 l-63 -6 -45 50 -46
50 -117 -59 c-182 -91 -306 -107 -347 -44 -9 13 -29 26 -44 29 -18 4 -37 19
-50 40 l-21 35 -77 -33 c-140 -61 -291 -70 -438 -24 -152 47 -279 131 -440
293 -140 141 -209 232 -322 428 l-83 143 0 -55 c0 -149 -22 -445 -39 -527 -24
-115 -64 -205 -109 -244 -31 -27 -41 -31 -78 -26 -70 8 -132 45 -235 145 l-99
94 0 -128 c0 -148 -9 -190 -48 -227 -70 -67 -278 -29 -384 71 -27 25 -50 43
-52 41 -1 -2 -11 -33 -20 -69 -10 -36 -25 -73 -34 -82 -35 -41 -173 -5 -248
64 l-42 38 -30 -37 c-29 -36 -32 -38 -90 -36 -221 5 -745 243 -1493 679 l-197
115 -100 -3 -101 -3 177 -157 c378 -334 669 -627 782 -787 60 -83 72 -111 48
-111 -26 0 -115 28 -222 69 -60 23 -110 40 -112 39 -1 -2 29 -46 67 -98 62
-83 109 -159 109 -174 0 -3 -17 -10 -38 -15 -190 -53 -882 99 -1701 373 -124
42 -226 75 -227 73 -1 -1 79 -76 179 -167 246 -225 807 -783 902 -900 85 -102
155 -205 155 -226 0 -20 -123 18 -254 77 -163 75 -171 77 -204 52 -18 -13 -28
-31 -30 -52 -3 -27 3 -39 37 -70 36 -33 39 -39 25 -53 -8 -8 -16 -28 -18 -43
-4 -33 -13 -37 -146 -60 -244 -42 -585 -56 -1347 -56 l-642 1 -20 -27 c-13
-16 -21 -41 -21 -64 0 -32 4 -39 22 -43 13 -3 160 -26 328 -51 1146 -174 1917
-371 2069 -529 l35 -36 -25 -26 c-28 -31 -92 -64 -169 -89 -30 -10 -58 -19
-61 -21 -3 -2 -1 -33 5 -70 l11 -67 80 2 c43 1 83 5 87 7 4 3 40 2 80 -2 l71
-7 -34 -28 c-19 -15 -121 -78 -226 -140 -106 -62 -192 -114 -190 -115 2 -2
106 17 231 42 126 25 233 43 238 42 17 -6 -78 -121 -175 -214 -178 -171 -560
-484 -608 -499 -19 -6 -21 -12 -16 -48 6 -44 35 -77 67 -77 10 0 82 30 161 66
870 400 1446 549 1586 409 30 -30 33 -39 33 -92 0 -66 -35 -174 -74 -234 -31
-47 -32 -68 -5 -103 38 -48 68 -37 174 63 155 146 285 221 387 225 40 1 49 5
63 29 16 27 18 28 36 11 10 -9 19 -30 19 -46 0 -119 -146 -605 -339 -1130 -50
-135 -91 -249 -91 -251 0 -3 50 47 112 111 462 482 786 777 1051 956 231 156
420 215 492 153 23 -19 28 -38 46 -147 11 -68 21 -125 23 -127 1 -2 29 57 60
129 62 142 108 223 136 238 15 8 24 3 49 -25 58 -66 108 -195 168 -430 34
-131 36 -152 41 -329 l4 -190 60 135 c157 355 251 513 378 639 89 88 161 133
250 156 176 45 354 -27 570 -232 56 -53 108 -94 119 -94 11 0 33 11 49 25 27
23 29 28 22 62 -17 72 -20 177 -7 213 12 34 14 35 62 35 120 -1 359 -163 664
-450 74 -69 135 -124 137 -122 2 2 -20 66 -50 143 -96 252 -135 396 -122 450
13 50 118 17 257 -79 l67 -45 23 24 c16 17 33 24 60 24 35 0 38 2 41 33 17
177 638 -13 1458 -448 310 -164 462 -254 533 -317 l67 -60 0 93 0 93 -254 251
c-139 137 -295 297 -345 355 -102 116 -178 223 -162 228 5 2 46 -12 90 -32
l81 -34 0 62 c0 93 9 100 122 104 73 3 118 -2 213 -23 131 -29 324 -91 483
-154 97 -39 108 -41 205 -41 l102 1 -35 32 c-20 17 -86 76 -147 130 -167 147
-283 294 -283 359 0 61 101 84 333 75 325 -12 852 -116 1525 -301 111 -31 209
-56 218 -56 30 0 64 47 64 88 l0 39 -112 33 c-393 115 -927 293 -1213 405
-173 67 -433 197 -484 241 l-44 38 39 13 c46 16 237 32 383 33 63 0 101 4 95
9 -5 5 -81 37 -169 71 -198 77 -275 114 -323 156 l-37 32 25 27 c32 35 138 88
250 125 183 62 570 144 912 195 141 21 158 32 158 104 l0 49 -137 6 c-559 24
-748 38 -948 72 -186 31 -325 80 -325 115 0 27 64 74 170 126 52 26 103 53
113 61 21 19 22 75 1 96 -18 19 -28 21 -164 35 -159 16 -248 49 -286 106 -75
115 245 448 756 787 74 49 136 94 138 99 4 9 -56 119 -64 119 -2 0 -63 -29
-135 -65 -353 -178 -714 -321 -954 -381 -127 -31 -265 -41 -319 -22 -56 19
-62 34 -49 115 7 37 11 68 10 70 -2 1 -54 -22 -117 -52 -161 -75 -284 -115
-358 -115 -76 0 -86 11 -77 84 10 74 2 101 -34 116 -25 10 -40 8 -108 -15 -43
-15 -108 -30 -145 -33 -67 -5 -68 -4 -78 24 -37 98 104 413 357 799 161 244
246 357 326 429 l72 66 -107 0 -107 0 -138 -122z"/>
</g>
</svg>
