<?xml version="1.0" standalone="no"?>
<!DOCTYPE svg PUBLIC "-//W3C//DTD SVG 20010904//EN"
 "http://www.w3.org/TR/2001/REC-SVG-20010904/DTD/svg10.dtd">
<svg version="1.0" xmlns="http://www.w3.org/2000/svg"
 width="1280.000000pt" height="1273.000000pt" viewBox="0 0 1280.000000 1273.000000"
 preserveAspectRatio="xMidYMid meet">
<metadata>
Created by potrace 1.15, written by Peter Selinger 2001-2017
</metadata>
<g transform="translate(0.000000,1273.000000) scale(0.100000,-0.100000)"
fill="#000000" stroke="none">
<path d="M2660 12724 c-267 -30 -469 -83 -632 -165 -71 -36 -200 -123 -258
-174 -112 -98 -1412 -1390 -1459 -1449 -140 -176 -232 -395 -283 -673 -28
-157 -31 -541 -4 -733 79 -574 260 -1136 589 -1825 733 -1539 2094 -3276 3702
-4726 1645 -1484 3369 -2518 4771 -2863 670 -165 1232 -151 1652 40 168 77
256 148 587 473 706 695 1092 1079 1138 1131 149 169 255 407 308 690 21 110
23 155 23 380 -1 263 -9 359 -55 605 -148 792 -582 1783 -1218 2778 -782 1224
-1832 2445 -3066 3563 -1004 910 -2150 1717 -3165 2231 -760 384 -1400 604
-2020 693 -137 20 -517 35 -610 24z m90 -2259 c303 -26 739 -144 1145 -308
1795 -727 3928 -2556 5284 -4530 291 -424 505 -788 717 -1222 290 -594 455
-1116 496 -1577 6 -71 8 -131 4 -135 -11 -12 -311 25 -465 57 -890 183 -1984
755 -3105 1623 -466 361 -877 727 -1362 1211 -727 728 -1240 1345 -1733 2086
-677 1017 -1061 1929 -1131 2685 -5 61 -10 114 -10 118 0 4 21 5 48 3 26 -3
76 -8 112 -11z"/>
</g>
</svg>
