<?xml version="1.0" standalone="no"?>
<!DOCTYPE svg PUBLIC "-//W3C//DTD SVG 20010904//EN"
 "http://www.w3.org/TR/2001/REC-SVG-20010904/DTD/svg10.dtd">
<svg version="1.0" xmlns="http://www.w3.org/2000/svg"
 width="1023.000000pt" height="1280.000000pt" viewBox="0 0 1023.000000 1280.000000"
 preserveAspectRatio="xMidYMid meet">
<metadata>
Created by potrace 1.15, written by Peter Selinger 2001-2017
</metadata>
<g transform="translate(0.000000,1280.000000) scale(0.100000,-0.100000)"
fill="#000000" stroke="none">
<path d="M4535 12789 c-1448 -59 -2896 -324 -4347 -799 l-188 -61 0 -733 0
-733 108 -7 c748 -48 1289 -602 1427 -1461 25 -154 31 -500 11 -668 -48 -418
-174 -780 -377 -1087 -97 -147 -251 -310 -376 -400 -194 -139 -433 -225 -660
-237 -72 -4 -113 -10 -113 -17 0 -6 5 -92 10 -191 57 -1070 431 -2124 1117
-3148 932 -1391 2412 -2617 3861 -3198 l123 -49 97 36 c376 140 844 373 1227
612 1267 790 2371 1983 3037 3279 263 511 432 959 557 1473 88 358 151 822
151 1106 l0 72 -112 7 c-62 4 -147 13 -188 21 -643 120 -1116 739 -1257 1644
-25 163 -25 558 0 720 53 336 156 615 315 855 79 120 264 310 367 377 220 144
437 212 717 225 l126 6 6 101 c3 56 15 337 26 626 11 289 23 580 26 647 l6
121 -188 62 c-1672 546 -3327 815 -4969 808 -187 0 -430 -5 -540 -9z"/>
</g>
</svg>
