<?xml version="1.0" standalone="no"?>
<!DOCTYPE svg PUBLIC "-//W3C//DTD SVG 20010904//EN"
 "http://www.w3.org/TR/2001/REC-SVG-20010904/DTD/svg10.dtd">
<svg version="1.0" xmlns="http://www.w3.org/2000/svg"
 width="1177.000000pt" height="1280.000000pt" viewBox="0 0 1177.000000 1280.000000"
 preserveAspectRatio="xMidYMid meet">
<metadata>
Created by potrace 1.15, written by Peter Selinger 2001-2017
</metadata>
<g transform="translate(0.000000,1280.000000) scale(0.100000,-0.100000)"
fill="#000000" stroke="none">
<path d="M650 12793 c-282 -47 -577 -329 -635 -608 -41 -199 7 -348 165 -505
107 -106 224 -187 408 -280 117 -59 156 -85 213 -139 56 -54 69 -72 69 -97 0
-26 6 -34 33 -44 17 -7 58 -38 89 -68 48 -47 56 -59 51 -82 -11 -58 49 -119
154 -156 46 -16 78 -43 266 -233 230 -232 330 -337 557 -587 243 -265 290
-320 290 -335 0 -24 46 -113 68 -133 12 -10 36 -21 54 -25 25 -5 42 -20 72
-63 21 -31 39 -68 39 -82 -1 -20 9 -31 37 -47 21 -12 43 -33 49 -46 11 -23 6
-30 -61 -100 -40 -41 -130 -125 -200 -185 -71 -60 -128 -113 -128 -117 0 -4
-87 -69 -192 -143 -326 -229 -438 -334 -497 -458 -92 -195 60 -443 287 -466
121 -13 271 38 357 122 54 52 75 96 75 159 0 58 -19 102 -65 153 -36 41 -114
80 -134 67 -22 -13 -10 13 35 75 48 67 287 310 304 310 6 0 28 13 51 29 22 17
61 37 87 45 38 13 280 59 427 82 29 5 33 0 107 -113 89 -138 158 -258 231
-401 49 -98 54 -103 92 -113 22 -6 91 -27 152 -47 l113 -37 692 -765 c2361
-2611 3683 -4061 5056 -5545 588 -636 758 -775 1657 -1364 187 -123 411 -272
497 -332 87 -60 165 -112 173 -115 41 -16 18 36 -88 197 -63 96 -221 345 -352
554 -393 629 -650 1001 -872 1265 -79 94 -945 1070 -1362 1535 -1103 1229
-2251 2493 -4203 4626 -528 577 -537 588 -552 645 -8 33 -20 94 -27 137 l-12
78 -130 85 c-143 94 -247 171 -379 282 -80 67 -86 75 -78 97 5 14 30 97 55
185 51 182 72 231 121 288 19 22 34 45 34 50 0 13 151 147 243 216 63 47 190
126 204 126 2 0 2 -9 -2 -19 -10 -32 34 -118 81 -160 41 -36 99 -61 141 -61
84 0 194 87 250 200 106 211 47 428 -142 521 -82 40 -138 47 -221 24 -131 -35
-270 -156 -544 -474 -85 -99 -159 -180 -164 -180 -5 -1 -51 -40 -103 -88 -229
-214 -311 -278 -343 -268 -11 4 -29 24 -40 45 -11 21 -29 41 -40 45 -11 3 -43
24 -72 46 -45 33 -53 44 -54 74 -1 45 -48 96 -114 124 -53 23 -108 80 -431
447 -165 187 -553 647 -611 724 -14 19 -34 62 -43 95 -35 121 -83 181 -138
172 -25 -3 -35 4 -73 51 -28 35 -44 64 -44 82 0 31 -13 45 -51 55 -61 15 -128
121 -194 307 -83 235 -151 352 -293 500 -128 133 -284 189 -452 161z"/>
</g>
</svg>
