<?xml version="1.0" standalone="no"?>
<!DOCTYPE svg PUBLIC "-//W3C//DTD SVG 20010904//EN"
 "http://www.w3.org/TR/2001/REC-SVG-20010904/DTD/svg10.dtd">
<svg version="1.0" xmlns="http://www.w3.org/2000/svg"
 width="1280.000000pt" height="664.000000pt" viewBox="0 0 1280.000000 664.000000"
 preserveAspectRatio="xMidYMid meet">
<metadata>
Created by potrace 1.15, written by Peter Selinger 2001-2017
</metadata>
<g transform="translate(0.000000,664.000000) scale(0.100000,-0.100000)"
fill="#000000" stroke="none">
<path d="M4750 6633 c-1118 -60 -2159 -307 -3174 -754 -139 -62 -666 -322
-666 -329 0 -10 133 -48 205 -60 91 -15 288 -13 405 4 58 9 175 32 260 52 360
82 424 95 517 109 54 8 133 15 175 15 89 0 226 29 592 126 485 128 643 162
803 171 l103 6 -30 -56 c-33 -60 -62 -180 -79 -323 -29 -241 -42 -1336 -21
-1744 59 -1144 263 -2030 639 -2775 169 -334 327 -574 459 -695 515 -476 1361
-508 1930 -73 134 103 239 237 490 626 380 591 646 1343 796 2252 57 343 100
707 121 1028 8 124 26 353 40 509 60 670 75 942 63 1168 -4 74 -4 137 -2 140
3 3 119 5 257 4 275 0 410 -15 712 -75 568 -114 1300 -354 1985 -650 113 -49
208 -89 212 -89 13 0 -42 123 -89 199 -140 226 -368 366 -778 481 -82 23 -235
68 -340 100 -1115 342 -2392 536 -4005 610 -511 23 -1349 36 -1580 23z"/>
<path d="M69 6074 c-68 -172 -83 -407 -48 -769 54 -570 433 -1078 874 -1174
228 -50 639 -76 818 -52 147 20 217 56 191 99 -39 62 -329 149 -789 237 -201
39 -286 66 -373 122 -182 116 -288 325 -438 867 -134 484 -181 638 -210 680
-13 18 -14 18 -25 -10z"/>
<path d="M12521 5941 c-29 -54 -34 -166 -21 -546 13 -411 6 -572 -28 -663 -40
-103 -159 -245 -270 -320 -143 -98 -269 -143 -577 -206 -267 -55 -404 -98
-469 -148 -18 -14 -17 -16 16 -41 80 -61 197 -87 392 -88 273 0 603 69 796
166 113 57 236 197 319 363 73 145 121 358 121 533 0 171 -57 466 -130 674
-41 116 -120 295 -131 295 -5 0 -13 -8 -18 -19z"/>
</g>
</svg>
